<?xml version="1.0" standalone="no"?>
<!DOCTYPE svg PUBLIC "-//W3C//DTD SVG 20010904//EN"
 "http://www.w3.org/TR/2001/REC-SVG-20010904/DTD/svg10.dtd">
<svg version="1.0" xmlns="http://www.w3.org/2000/svg"
 width="350" height="338" viewBox="0 0 350 338"
 preserveAspectRatio="xMidYMid meet">

<g transform="translate(0.000000,338.000000) scale(0.100000,-0.100000)"
fill="#FFBE00" stroke="none">
<path d="M1064 3366 c-81 -19 -165 -61 -221 -110 l-45 -40 7 45 c4 24 11 52
17 62 18 36 -14 16 -80 -50 -80 -79 -145 -183 -177 -285 -25 -78 -24 -78 -42
22 l-8 44 -23 -38 c-49 -83 -71 -228 -52 -351 13 -88 71 -224 112 -262 l23
-22 0 112 c0 83 5 126 18 165 10 28 22 52 25 51 4 0 24 -36 45 -79 42 -87 106
-161 183 -209 26 -17 50 -31 53 -31 4 0 7 48 7 108 4 286 10 355 34 409 24 57
83 117 136 139 47 20 141 17 189 -5 47 -21 98 -76 121 -129 21 -51 29 -166 15
-232 -6 -30 -23 -79 -37 -107 l-25 -53 27 -36 c15 -19 80 -85 143 -145 l116
-109 28 32 c44 51 133 244 156 337 80 326 -84 646 -382 748 -91 31 -269 40
-363 19z"/>
<path d="M998 2745 c-62 -119 -72 -367 -16 -405 62 -42 148 -136 148 -162 0
-6 -23 11 -51 36 -28 25 -100 74 -161 108 -139 80 -214 139 -258 206 -32 49
-35 52 -41 30 -16 -56 -7 -132 26 -212 6 -14 5 -17 -3 -12 -11 7 -233 25 -240
20 -2 -1 19 -18 47 -38 51 -37 111 -116 111 -146 0 -26 -48 -63 -160 -125 -98
-53 -235 -144 -228 -150 2 -1 33 2 69 8 93 14 153 3 197 -37 30 -28 36 -40 39
-87 2 -30 -2 -78 -10 -106 -14 -53 -10 -66 13 -38 42 51 245 169 337 196 23 6
40 16 37 20 -2 4 -32 11 -65 15 -32 4 -62 10 -64 14 -7 11 48 56 97 81 66 33
184 59 267 58 74 -1 74 -2 26 -9 -73 -11 -133 -29 -192 -57 -56 -26 -68 -43
-30 -44 26 0 138 -37 118 -38 -30 -2 -120 -82 -160 -142 -22 -33 -41 -65 -41
-69 0 -5 24 1 53 12 97 37 211 11 265 -60 48 -63 33 -179 -31 -249 l-20 -23
36 0 c19 0 47 4 61 10 40 15 32 -5 -25 -66 l-52 -54 34 6 c101 19 208 76 248
133 27 38 26 45 -3 37 -14 -3 -37 -1 -51 4 -26 10 -27 12 -23 73 3 34 9 71 13
82 8 19 8 19 -12 3 -11 -10 -29 -18 -40 -18 -38 0 -43 52 -13 132 12 31 16 56
11 61 -5 5 -40 12 -78 15 l-68 6 55 13 c73 18 266 28 310 16 42 -11 50 -43 26
-104 -9 -22 -16 -41 -16 -43 0 -2 35 -5 79 -8 53 -3 89 -11 112 -24 46 -26 72
-78 64 -127 l-5 -38 30 18 c84 49 160 207 160 334 l0 39 -43 -45 c-50 -52 -72
-57 -80 -17 -3 15 -17 34 -32 43 -23 14 -26 23 -29 80 -3 49 -12 84 -36 135
-28 60 -56 92 -209 244 -218 217 -275 300 -284 415 -1 19 -5 35 -9 35 -16 0
-38 -100 -38 -173 l0 -80 163 -161 c97 -96 172 -179 186 -206 l23 -45 -33 39
c-18 22 -67 71 -109 110 -318 300 -362 358 -379 500 l-7 61 -16 -30z m433
-738 c33 -22 99 -100 99 -118 0 -24 -82 10 -104 43 -23 36 -47 98 -38 98 5 0
24 -10 43 -23z"/>
<path d="M2728 2216 c-55 -20 -114 -57 -212 -136 -120 -95 -167 -90 -100 12
31 48 30 54 -3 33 -90 -58 -218 -196 -279 -301 -30 -51 -75 -157 -69 -162 2
-2 18 12 36 32 116 132 391 275 561 291 l63 6 -75 -21 c-172 -46 -365 -166
-530 -331 -88 -87 -200 -221 -200 -239 0 -4 10 -10 23 -14 12 -3 64 -39 115
-81 52 -42 95 -75 97 -73 2 2 17 33 33 68 70 154 205 360 298 454 119 120 299
156 443 91 53 -25 54 -25 85 -6 92 56 270 96 404 90 78 -4 80 -3 64 14 -9 11
-44 39 -77 64 -186 140 -387 181 -586 120 -99 -31 -115 -32 -122 -13 -8 20 20
54 71 87 39 25 42 29 21 29 -13 -1 -40 -7 -61 -14z"/>
<path d="M364 1788 c-138 -146 -285 -374 -319 -498 l-7 -25 28 26 c16 14 51
41 78 59 39 26 48 29 41 14 -25 -60 -58 -191 -67 -273 -29 -250 59 -571 198
-720 l52 -56 -4 70 c-5 69 -5 70 13 45 150 -210 453 -347 717 -326 319 25 564
175 756 462 68 102 120 194 120 212 0 9 -277 242 -288 242 -4 0 -23 -26 -42
-58 -19 -31 -80 -102 -135 -157 -81 -82 -115 -108 -180 -140 -75 -38 -85 -40
-170 -40 -76 0 -99 4 -147 27 -112 52 -191 155 -223 289 -47 203 22 418 201
625 51 58 53 62 31 68 -73 20 -172 -5 -236 -60 l-41 -36 0 29 c0 43 28 130 56
175 13 21 21 38 17 38 -17 0 -146 -72 -217 -119 -41 -28 -104 -75 -140 -106
-48 -41 -66 -52 -66 -39 0 10 10 73 21 140 20 112 20 174 1 174 -4 0 -26 -19
-48 -42z"/>
<path d="M1347 1706 c-11 -29 -8 -84 7 -120 8 -20 43 -57 86 -91 82 -67 95
-88 105 -170 8 -68 36 -139 68 -174 12 -13 96 -86 187 -161 280 -234 274 -224
275 -460 1 -147 3 -170 23 -212 35 -79 123 -162 191 -183 l24 -7 -21 34 c-50
81 -49 207 2 277 l23 31 7 -47 c13 -103 104 -244 193 -301 184 -118 466 -91
638 60 19 16 35 33 35 37 0 4 -31 5 -70 3 -77 -5 -186 23 -230 58 l-25 20 32
-6 c51 -10 173 15 249 52 82 39 167 122 203 199 48 103 47 227 -4 330 -31 63
-123 153 -193 189 -64 33 -171 58 -226 54 l-41 -3 35 -16 c128 -58 178 -201
107 -308 -41 -62 -135 -103 -245 -109 l-87 -5 27 27 c86 87 91 255 10 375 -15
22 -39 49 -54 61 l-28 21 6 -44 c12 -87 -46 -167 -134 -183 -61 -12 -113 20
-340 208 -119 99 -230 187 -247 195 -16 9 -68 20 -113 24 -54 5 -90 13 -102
24 -9 9 -23 44 -31 78 -7 36 -22 71 -35 83 -25 25 -82 44 -135 44 -72 0 -136
43 -156 104 -8 25 -10 27 -16 12z"/>
</g>
</svg>
