<?xml version="1.0" standalone="no"?>
<!DOCTYPE svg PUBLIC "-//W3C//DTD SVG 20010904//EN" "http://www.w3.org/TR/2001/REC-SVG-20010904/DTD/svg10.dtd">
<svg width="570pt" height="269pt" viewBox="0 0 570 269" xmlns="http://www.w3.org/2000/svg">
<defs/>
<path transform="matrix(1.60759596024081 0.670933261326619 -0.654584641055229 1.64774657523451 397.862364773699 -40.3050864302316)" fill="#988962" fill-rule="evenodd" stroke="#eadeb8" stroke-width="1.99999999999984" stroke-linecap="square" stroke-linejoin="bevel" d="M38.5373 167.788L39.4164 167.25C42.4822 165.308 45.5479 163.366 48.6136 161.424L60.1664 153.5L80.4334 144.453C94.3174 138.605 104.04 133.225 109.416 129.25C116.163 124.749 117.463 121.949 122.416 117C124.563 114.258 126.524 111.499 127.524 108.644C129.237 105.908 131.016 103.166 131.916 100.5L133.666 91L124.666 101.75L116.166 107.5L103.487 114.494C104.16 112.511 112.098 104.66 114.737 99.7438C117.717 94.67 119.236 88.5305 120.916 83.75C123.467 78.9167 123.204 73.32 124.067 68.4867C124.395 64.6409 124.724 61.2335 123.567 53.2367L122.416 45.75L117.666 30.5L107.666 17.25C105.185 14.2195 101.259 11.1891 97.4039 8.15864C92.3364 5.7122 90.9964 4.75019 85.9288 3.24571C81.2505 1.46397 72.8447 -0.136589 68.1664 0.25L62.4164 0L81.4164 6L92.9164 13.25L102.166 22.75L109.416 37.5L112.416 53.5L112.166 63.5L109.666 77.5L105.644 91.4717C104.814 84.3905 104.105 77.2008 102.926 70.434C101.298 64.8859 98.7476 60.1664 96.4164 55.25L86.9164 44L75.6664 37.25L69.9164 35.5L62.9164 35.25L57.1664 38C55.0121 39.6943 52.9816 41.5044 51.4164 43.75L50.1664 47.75L50.1664 52.5L51.1664 56.5L53.6664 59.5C54.9998 60.5 56.3331 61.5 57.6664 62.5L61.9164 63.5L64.6664 63.5L60.4164 60.25L58.4164 57C57.3718 54.9167 56.4941 52.8333 57.4164 50.75L60.1664 46.25C62.4998 45.0707 64.8331 44.5271 67.1664 44L75.6664 45.75L82.1664 51.75L86.4164 56.5L90.4164 65.25L92.9164 75.25L93.4164 85L92.4164 93.75L90.6664 102.5L86.4164 111.75L79.6664 121L71.1664 129L65.1664 133L61.9164 135.75L62.4164 126.25L60.9164 121.75L57.9164 117L53.9164 113L50.9164 110.25L52.4164 118.75L52.6664 126.75L50.6664 133.25L46.1664 141.5L41.6664 146.25L41.4164 135.25L38.4621 120.598L32.9164 110.75L28.9914 105.916L22.6274 100.259L17.4164 97.75L23.9735 106.861L28.5427 115.293L30.5929 123.612L31.4963 132.397L31.1149 143.772L27.4164 151.75L22.6664 159.5L17.1664 164.75L12.1976 167.434L4.94975 172.031L0 174.152C17.9643 172.727 34.4851 174.904 39 166.152"/>
<path transform="matrix(-1.60759597886481 0.670933269099381 0.654584648638593 1.64774659432365 172.13693742662 -38.893762912885)" fill="#988962" fill-rule="evenodd" stroke="#eadeb8" stroke-width="1.99999999999984" stroke-linecap="square" stroke-linejoin="bevel" d="M38.5373 167.323L39.4164 166.785L48.6136 160.959L60.1664 153.035L80.4334 143.988C94.3174 138.14 104.04 132.76 109.416 128.785C116.163 124.284 117.463 121.484 122.416 116.535L128.416 107.785L131.916 100.035L133.666 90.5348L124.666 101.285L116.166 107.035L104.166 112.285C110.197 107.545 112.777 102.452 115.416 97.5348C118.499 92.7142 119.236 88.0653 120.916 83.2848C123.467 78.4515 123.204 72.8548 124.067 68.0215C124.395 64.1757 124.724 60.7683 123.567 52.7715L122.416 45.2848L117.666 30.0348C112.957 22.2836 111.123 20.4201 107.666 16.7848C105.185 13.7543 101.259 10.7239 97.4039 7.69344C92.3364 5.247 87.2688 3.36429 82.2012 1.85981C78.9547 0.866253 73.7593 0.598946 68.1094 0.450655L61.7814 0L81.4164 5.5348L92.9164 12.7848L102.166 22.2848L109.416 37.0348L112.416 53.0348L112.166 63.0348L109.666 77.0348L106.416 87.5348L102.916 70.0348L96.4164 54.7848L86.9164 43.5348C82.0813 39.8663 79.0612 38.539 75.6664 36.7848L69.9164 35.0348L62.9164 34.7848L57.1664 37.5348L51.4164 43.2848L50.1664 47.2848L50.1664 52.0348L51.1664 56.0348L53.6664 59.0348C54.9998 60.0348 56.3331 61.0348 57.6664 62.0348L61.9164 63.0348L64.6664 63.0348L60.4164 59.7848L58.4164 56.5348C57.3718 54.4515 56.4941 52.3681 57.4164 50.2848L60.1664 45.7848C62.4998 44.6055 64.8331 44.0619 67.1664 43.5348L75.6664 45.2848L82.1664 51.2848L86.4164 56.0348L90.4164 64.7848L92.9164 74.7848L93.4164 84.5348L92.4164 93.2848L90.6664 102.035L86.4164 111.285L79.6664 120.535L71.1664 128.535L65.1664 132.535L61.9164 135.285L62.4164 125.785L60.9164 121.285L57.9164 116.535L54.4998 112.326L50.2583 108.886L52.4164 118.285L52.6664 126.285L50.6664 132.785L46.1664 141.035L41.6664 145.785L41.2059 134.082L38.0451 120.164L34.5548 112.18C32.9459 109.403 31.6708 107.516 29.6446 105.278L22.6274 99.7938L16.6481 97.45C23.0637 103.681 25.4371 107.9 25.6073 109.727C27.7754 112.706 27.97 115.229 28.764 117.89L30.7739 126.52L31.6258 135.178L30.4998 143.904L27.4164 151.285L22.6664 159.035L17.1664 164.285L12.1976 166.969L4.94975 171.566L0 173.687C17.9643 172.262 34.4851 174.439 39 165.687"/>
</svg>
